<svg id="visual" viewBox="0 0 900 600" width="900" height="600" xmlns="http://www.w3.org/2000/svg" xmlns:xlink="http://www.w3.org/1999/xlink" version="1.1"><path d="M0 85L37.5 81C75 77 150 69 225 68C300 67 375 73 450 86C525 99 600 119 675 118C750 117 825 95 862.5 84L900 73L900 0L862.5 0C825 0 750 0 675 0C600 0 525 0 450 0C375 0 300 0 225 0C150 0 75 0 37.5 0L0 0Z" fill="#cfc3f9"></path><path d="M0 139L37.5 131C75 123 150 107 225 105C300 103 375 115 450 135C525 155 600 183 675 182C750 181 825 151 862.5 136L900 121L900 71L862.5 82C825 93 750 115 675 116C600 117 525 97 450 84C375 71 300 65 225 66C150 67 75 75 37.5 79L0 83Z" fill="#c6b8f7"></path><path d="M0 337L37.5 335C75 333 150 329 225 329C300 329 375 333 450 346C525 359 600 381 675 378C750 375 825 347 862.5 333L900 319L900 119L862.5 134C825 149 750 179 675 180C600 181 525 153 450 133C375 113 300 101 225 103C150 105 75 121 37.5 129L0 137Z" fill="#bdadf6"></path><path d="M0 445L37.5 450C75 455 150 465 225 460C300 455 375 435 450 435C525 435 600 455 675 468C750 481 825 487 862.5 490L900 493L900 317L862.5 331C825 345 750 373 675 376C600 379 525 357 450 344C375 331 300 327 225 327C150 327 75 331 37.5 333L0 335Z" fill="#b4a2f5"></path><path d="M0 505L37.5 511C75 517 150 529 225 526C300 523 375 505 450 509C525 513 600 539 675 549C750 559 825 553 862.5 550L900 547L900 491L862.5 488C825 485 750 479 675 466C600 453 525 433 450 433C375 433 300 453 225 458C150 463 75 453 37.5 448L0 443Z" fill="#ad99f4"></path><path d="M0 601L37.5 601C75 601 150 601 225 601C300 601 375 601 450 601C525 601 600 601 675 601C750 601 825 601 862.5 601L900 601L900 545L862.5 548C825 551 750 557 675 547C600 537 525 511 450 507C375 503 300 521 225 524C150 527 75 515 37.5 509L0 503Z" fill="#a58ff3"></path></svg>