<svg width="160" height="19" viewBox="0 0 160 19" fill="none" xmlns="http://www.w3.org/2000/svg">
<path d="M0.517029 0.54546H5.06817L9.87498 12.2727H10.0795L14.8863 0.54546H19.4375V18H15.8579V6.63921H15.7131L11.196 17.9148H8.75851L4.24146 6.5966H4.09657V18H0.517029V0.54546Z" fill="#F5EFFF"/>
<path d="M25.358 18V0.54546H37.1193V3.58807H29.0483V7.74716H36.5142V10.7898H29.0483V14.9574H37.1534V18H25.358Z" fill="#F5EFFF"/>
<path d="M49.1208 18H42.9333V0.54546H49.1719C50.9276 0.54546 52.439 0.894892 53.706 1.59376C54.9731 2.28694 55.9475 3.2841 56.6293 4.58523C57.3168 5.88637 57.6606 7.44319 57.6606 9.25569C57.6606 11.0739 57.3168 12.6364 56.6293 13.9432C55.9475 15.25 54.9674 16.2528 53.689 16.9517C52.4162 17.6506 50.8935 18 49.1208 18ZM46.6236 14.8381H48.9674C50.0583 14.8381 50.9759 14.6449 51.7202 14.2585C52.4702 13.8665 53.0327 13.2614 53.4077 12.4432C53.7884 11.6193 53.9787 10.5568 53.9787 9.25569C53.9787 7.96591 53.7884 6.91194 53.4077 6.09376C53.0327 5.27557 52.4731 4.6733 51.7287 4.28694C50.9844 3.90057 50.0668 3.70739 48.9759 3.70739H46.6236V14.8381Z" fill="#F5EFFF"/>
<path d="M62.9163 2.42046V0.54546H76.0072V2.42046H70.5185V18H68.4049V2.42046H62.9163Z" fill="#F5EFFF"/>
<path d="M84.2629 0.54546V18H82.1492V0.54546H84.2629Z" fill="#F5EFFF"/>
<path d="M105.426 6.00001H103.313C103.188 5.39205 102.969 4.85796 102.656 4.39773C102.35 3.93751 101.975 3.55114 101.531 3.23864C101.094 2.92046 100.608 2.68182 100.074 2.52273C99.5399 2.36364 98.9831 2.2841 98.4035 2.2841C97.3467 2.2841 96.3893 2.55114 95.5314 3.08523C94.6791 3.61932 94.0001 4.40626 93.4944 5.44603C92.9944 6.4858 92.7444 7.76137 92.7444 9.27273C92.7444 10.7841 92.9944 12.0597 93.4944 13.0994C94.0001 14.1392 94.6791 14.9261 95.5314 15.4602C96.3893 15.9943 97.3467 16.2614 98.4035 16.2614C98.9831 16.2614 99.5399 16.1818 100.074 16.0227C100.608 15.8636 101.094 15.6278 101.531 15.3153C101.975 14.9972 102.35 14.608 102.656 14.1477C102.969 13.6818 103.188 13.1477 103.313 12.5455H105.426C105.267 13.4375 104.977 14.2358 104.557 14.9403C104.136 15.6449 103.614 16.2443 102.989 16.7386C102.364 17.2273 101.662 17.5994 100.884 17.8551C100.111 18.1108 99.2842 18.2386 98.4035 18.2386C96.9149 18.2386 95.591 17.875 94.4319 17.1477C93.2729 16.4205 92.3609 15.3864 91.6962 14.0455C91.0314 12.7046 90.699 11.1136 90.699 9.27273C90.699 7.43182 91.0314 5.84092 91.6962 4.50001C92.3609 3.1591 93.2729 2.12501 94.4319 1.39773C95.591 0.67046 96.9149 0.306824 98.4035 0.306824C99.2842 0.306824 100.111 0.434665 100.884 0.690347C101.662 0.946029 102.364 1.32103 102.989 1.81535C103.614 2.30398 104.136 2.90057 104.557 3.60512C104.977 4.30398 105.267 5.10228 105.426 6.00001Z" fill="#F5EFFF"/>
<path d="M111.722 18V0.54546H113.835V9.20455H114.04L121.881 0.54546H124.642L117.313 8.42046L124.642 18H122.085L116.017 9.88637L113.835 12.3409V18H111.722Z" fill="#F5EFFF"/>
<path d="M130.258 18V0.54546H140.792V2.42046H132.372V8.31819H140.247V10.1932H132.372V16.125H140.928V18H130.258Z" fill="#F5EFFF"/>
<path d="M146.527 2.42046V0.54546H159.618V2.42046H154.129V18H152.016V2.42046H146.527Z" fill="#F5EFFF"/>
</svg>
